<svg xmlns="http://www.w3.org/2000/svg" width="315" height="285" viewBox="0 0 315 285" version="1.1"><path d="M 149 83 L 149 92 163.951 92 C 181.731 92, 187.924 93.116, 192.518 97.150 C 196.821 100.928, 198.323 105.589, 197.813 113.588 C 197.355 120.792, 195.374 124.273, 189.895 127.500 C 186.863 129.286, 184.335 129.536, 166.250 129.839 L 146 130.178 146 111.089 L 146 92 136.500 92 L 127 92 127 140.500 L 127 189 138 189 L 149 189 149 197.569 L 149 206.137 171.276 205.819 L 193.552 205.500 200.223 202.213 C 212.620 196.106, 219.091 185.477, 219.257 170.949 C 219.380 160.261, 216.955 153.965, 210 146.915 C 206.509 143.376, 202.843 140.749, 199.995 139.744 C 197.523 138.872, 196.305 138.122, 197.290 138.079 C 200.211 137.950, 206.272 134.414, 209.699 130.838 C 215.303 124.990, 217.516 118.708, 217.390 109 C 217.251 98.293, 214.555 90.782, 208.689 84.753 C 200.334 76.168, 191.748 74.019, 165.750 74.008 L 149 74 149 83 M 146 167.574 L 146 188.147 166.250 187.824 C 185.702 187.513, 186.675 187.401, 190.930 185 C 202.034 178.733, 203.279 160.302, 193.171 151.798 C 188.705 148.039, 182.159 147, 162.951 147 L 146 147 146 167.574" stroke="none" fill="#ffffff" fill-rule="evenodd"/><path d="M 37.507 68.250 C 23.846 98.638, 10.944 126.249, 8.835 129.608 C 6.726 132.967, 5 135.996, 5 136.339 C 5 136.681, 6.618 139.491, 8.596 142.582 C 10.573 145.674, 23.350 173.004, 36.989 203.316 C 50.628 233.628, 62.172 258.552, 62.643 258.703 C 63.115 258.854, 65.439 255.575, 67.809 251.417 L 72.119 243.857 54.247 190.240 L 36.374 136.623 54.211 82.386 L 72.047 28.148 67.448 20.574 C 64.919 16.408, 62.736 13, 62.597 13 C 62.458 13, 51.167 37.862, 37.507 68.250 M 239.051 20.283 C 236.604 24.180, 234.666 28.073, 234.743 28.935 C 234.821 29.796, 243.437 54.293, 253.891 83.372 L 272.897 136.245 253.520 190.123 L 234.143 244 238.726 251.500 C 241.246 255.625, 243.584 259, 243.921 259 C 244.258 259, 255.498 234.494, 268.899 204.543 C 282.299 174.591, 294.989 147.253, 297.097 143.793 C 299.205 140.332, 300.944 137.050, 300.962 136.500 C 300.980 135.950, 299.360 132.800, 297.363 129.500 C 295.365 126.200, 282.742 98.975, 269.313 69 C 255.883 39.025, 244.582 14.207, 244.198 13.848 C 243.814 13.490, 241.498 16.386, 239.051 20.283 M 97 83 L 97 92 123 92 L 149 92 149 83 L 149 74 123 74 L 97 74 97 83 M 97 197.500 L 97 206 123 206 L 149 206 149 197.500 L 149 189 123 189 L 97 189 97 197.500" stroke="none" fill="#04f4fc" fill-rule="evenodd"/><path d="" stroke="none" fill="#fcfcfc" fill-rule="evenodd"/></svg>